<svg id="Line" viewBox="0 0 64 64" xmlns="http://www.w3.org/2000/svg" width="300" height="300" version="1.1" xmlns:xlink="http://www.w3.org/1999/xlink" xmlns:svgjs="http://svgjs.dev/svgjs"><g width="100%" height="100%" transform="matrix(1,0,0,1,0,0)"><g fill="rgb(0,0,0)"><path d="m43.36621 60.5c-1.20117 0-2.33203-.46777-3.18164-1.31836l-8.26367-8.26367c-.58594-.58594-.58594-1.53516 0-2.12109l16.87598-16.87598c.58594-.58594 1.53516-.58594 2.12109 0l8.26367 8.26367c.85059.84961 1.31836 1.98047 1.31836 3.18164 0 1.20215-.46777 2.33301-1.31836 3.18262l-12.63281 12.63281c-.84961.85059-1.98047 1.31836-3.18262 1.31836zm-8.26367-10.64258 7.20312 7.20312c.58691.58398 1.53711.58398 2.12207 0l12.63281-12.63281c.58496-.58496.58496-1.53711 0-2.12207l-7.20312-7.20312z" fill="#fd1b0a" fill-opacity="1" data-original-color="#000000ff" stroke="none" stroke-opacity="1"/><path d="m50.66992 47.9502c-.38379 0-.7666-.14551-1.05957-.43848l-3.90039-3.89062c-.28125-.28027-.44043-.66211-.44043-1.06055s.1582-.78027.43945-1.06152l6.33008-6.3291c.58594-.58594 1.53516-.58594 2.12109 0s.58594 1.53516 0 2.12109l-5.26758 5.26758 1.77637 1.77148 5.27051-5.27051c.58594-.58594 1.53516-.58594 2.12109 0s.58594 1.53516 0 2.12109l-6.33008 6.33008c-.29297.29297-.67676.43945-1.06055.43945z" fill="#fd1b0a" fill-opacity="1" data-original-color="#000000ff" stroke="none" stroke-opacity="1"/><path d="m20.0918 40.99414c-5.32568 0-10.49951-2.01953-13.95605-5.47656-2.71484-2.71387-3.35156-6.51953-1.84229-11.00488 1.29785-3.85449 4.11768-8.02637 8.15576-12.06348 8.92334-8.92481 17.97607-11.40625 23.06836-6.31348 5.55664 5.55664 8.79785 18.45996 1.45508 26.85156-4.33301 4.95312-10.07959 7.79199-16.18115 7.99512-.2334.00781-.4668.01172-.69971.01172zm8.74853-34.45703c-3.48926 0-8.34668 2.10938-14.27002 8.0332-3.65918 3.65918-6.29932 7.53027-7.43311 10.89941-1.1377 3.37988-.76074 6.0459 1.11963 7.92676 3.03125 3.03125 7.66797 4.74707 12.43457 4.58789 3.72314-.12402 9.17822-1.43457 14.02344-6.97168 6.66113-7.61328 2.74512-18.69238-1.31836-22.75586-1.04346-1.04297-2.58057-1.71973-4.55615-1.71973z" fill="#fd1b0a" fill-opacity="1" data-original-color="#000000ff" stroke="none" stroke-opacity="1"/><path d="m26.83789 51.37402c-.17969 0-.3623-.03223-.54053-.10059-5.16455-1.99707-12.14258-7.45117-20.18018-15.77441-.5752-.5957-.55859-1.5459.03711-2.12109.59521-.5752 1.54443-.55957 2.12109.03711 9.77441 10.12207 15.78369 13.77637 19.104 15.05957.77246.29883 1.15674 1.16797.85791 1.94043-.22998.59473-.79736.95898-1.39941.95898z" fill="#fd1b0a" fill-opacity="1" data-original-color="#000000ff" stroke="none" stroke-opacity="1"/><path d="m49.85645 34.48145c-.35059 0-.70312-.12207-.9873-.37207-.62305-.5459-.68555-1.49316-.13965-2.11621 2.56543-2.92969 1.53027-13.29883-2.83984-19.09473-2.64453-3.50684-5.80859-4.42285-9.40625-2.72559-.74512.35254-1.64258.03418-1.99609-.7168-.35352-.74902-.0332-1.64258.7168-1.99609 4.91895-2.32129 9.56543-1.03125 13.08105 3.63184 5.01367 6.65039 6.42773 18.62305 2.7002 22.87793-.2959.33887-.71094.51172-1.12891.51172z" fill="#fd1b0a" fill-opacity="1" data-original-color="#000000ff" stroke="none" stroke-opacity="1"/><path d="m21.59033 16.24219c-.43945 0-.875-.19238-1.17139-.56152-.51807-.64648-.41406-1.59082.23242-2.10938 3.1626-2.53418 6.0293-3.81934 8.52051-3.81934.82861 0 1.5.67188 1.5 1.5s-.67139 1.5-1.5 1.5c-1.7666 0-4.06445 1.09277-6.64453 3.16113-.27686.22168-.60791.3291-.93701.3291z" fill="#fd1b0a" fill-opacity="1" data-original-color="#000000ff" stroke="none" stroke-opacity="1"/><path d="m17.51465 20.12012c-.34668 0-.69482-.11914-.97852-.36328-.62695-.54004-.69824-1.48633-.15869-2.11426 0 0 .25537-.29785.70947-.77734.56885-.60156 1.51807-.62793 2.12061-.05859.60156.57031.62744 1.51953.05811 2.12109-.38281.4043-.60352.65918-.61523.67285-.29639.34375-.71484.51953-1.13574.51953z" fill="#fd1b0a" fill-opacity="1" data-original-color="#000000ff" stroke="none" stroke-opacity="1"/><path d="m43.42578 25.76855c-.21094 0-.4248-.04395-.62891-.13867-3.08887-1.42773-4.3418-4.17871-4.39355-4.29492-.33691-.75684.00293-1.64355.75977-1.98047.75195-.33789 1.6377.00098 1.97656.75098.02246.04688.89551 1.86719 2.91602 2.80176.75293.34766 1.08008 1.23828.73242 1.99023-.25293.54883-.7959.87109-1.3623.87109z" fill="#fd1b0a" fill-opacity="1" data-original-color="#000000ff" stroke="none" stroke-opacity="1"/></g></g></svg>