<svg height="300" viewBox="0 -1 511.99974 511" width="300" xmlns="http://www.w3.org/2000/svg" version="1.1" xmlns:xlink="http://www.w3.org/1999/xlink" xmlns:svgjs="http://svgjs.dev/svgjs"><g width="100%" height="100%" transform="matrix(1,0,0,1,0,0)"><path d="m510.6875 477.257812-46.5-136.695312c-.699219-2.0625-1.671875-4.019531-2.890625-5.824219l-49.183594-70.875-32.335937-132.359375 57.296875 35.597656 12.789062 65.550782c2.160157 11.074218 12.890625 18.296875 23.964844 16.136718 11.074219-2.160156 18.296875-12.890624 16.136719-23.964843l-14.492188-74.285157c-1.089844-5.574218-4.445312-10.445312-9.269531-13.441406l-81.28125-50.503906c-4.660156-2.894531-10.292969-3.796875-15.628906-2.492188-12.875 3.148438-93.710938 22.894532-106.539063 26.027344-5.179687 1.265625-9.660156 4.507813-12.484375 9.03125l-41.847656 67.074219c-2.085937 3.34375-3.160156 7.214844-3.097656 11.152344l1.503906 90.171875c.1875 11.164062 9.292969 20.089844 20.417969 20.089844.117187 0 .234375-.003907.347656-.003907 11.28125-.1875 20.277344-9.484375 20.089844-20.765625l-1.402344-84.136718 28.394531-45.511719 28.914063 118.363281-20.597656 96.421875c-.765626 3.578125-.71875 7.285156.140624 10.84375l25.945313 108.015625c3.144531 13.101562 16.335937 21.289062 29.5625 18.113281 13.164063-3.164062 21.269531-16.398437 18.109375-29.5625l-24.648438-102.605469 18.945313-86.726562 17.976563-4.390625 49.804687 73.753906 14.5 42.625c14.132813.042969 27.863281 5.089844 38.675781 14.21875 25.390625 21.445313 28.605469 59.542969 7.164063 84.933594-1.425781 1.691406-2.9375 3.289063-4.519531 4.792969 6.113281 3.75 13.632812 4.742187 20.726562 2.332031 12.816406-4.359375 19.671875-18.285156 15.3125-31.101563zm0 0" fill="#fd1b0a" fill-opacity="1" data-original-color="#000000ff" stroke="none" stroke-opacity="1"/><path d="m344.058594 32.789062c-5.546875-22.714843-28.460938-36.628906-51.175782-31.078124-22.714843 5.546874-36.628906 28.460937-31.082031 51.171874 5.550781 22.714844 28.460938 36.632813 51.175781 31.082032 22.714844-5.546875 36.632813-28.460938 31.082032-51.175782zm0 0" fill="#fd1b0a" fill-opacity="1" data-original-color="#000000ff" stroke="none" stroke-opacity="1"/><path d="m462.316406 429.847656c-19.175781-16.191406-47.714844-13.632812-63.769531 5.378906-16.125 19.09375-13.71875 47.644532 5.378906 63.765626 19.171875 16.195312 47.710938 13.636718 63.765625-5.375 16.125-19.09375 13.71875-47.644532-5.375-63.769532zm0 0" fill="#fd1b0a" fill-opacity="1" data-original-color="#000000ff" stroke="none" stroke-opacity="1"/><path d="m201.957031 357.257812c-1.214843-2.734374-2.90625-5.230468-4.992187-7.375l-33.066406-33.957031c-15.296876.648438-23.613282-8.496093-27.070313-10.355469-22.644531-15.839843-37.667969-26.347656-71.199219-49.800781-6.230468-4.359375-9.25-11.617187-8.539062-18.679687l5.605468-54.183594 8.355469 51.9375c.863281 5.378906 3.871094 10.171875 8.332031 13.296875l71.554688 50.050781c9.070312 6.34375 21.625 4.1875 28.023438-4.957031 6.371093-9.109375 4.152343-21.65625-4.957032-28.023437l-64.570312-45.167969-7-43.527344 13.992187 31.167969 21.648438 15.140625 1.195312-79.171875c.25-16.5625-12.96875-30.195313-29.527343-30.457032l-53.503907-.839843c-16.566406-.261719-30.222656 12.972656-30.472656 29.546875l-2.445313 162.089844 11.394532 79.808593-33.203125 91.953125c-4.75 13.148438 2.0625 27.660156 15.210937 32.40625 13.203125 4.769532 27.679688-2.113281 32.40625-15.210937l35.242188-97.59375c1.339844-3.707031 1.792968-7.679688 1.328125-11.59375l-9.40625-78.933594 6.226562.097656 75.015625 77.039063 50.117188 112.675781c5.664062 12.734375 20.609375 18.539063 33.417968 12.839844 12.773438-5.679688 18.523438-20.640625 12.839844-33.417969zm0 0" fill="#fd1b0a" fill-opacity="1" data-original-color="#000000ff" stroke="none" stroke-opacity="1"/><path d="m92.328125 8.035156c-24.53125-.386718-44.726563 19.183594-45.117187 43.710938-.386719 24.527344 19.183593 44.726562 43.710937 45.113281 24.53125.386719 44.726563-19.179687 45.117187-43.710937.386719-24.527344-19.183593-44.726563-43.710937-45.113282zm0 0" fill="#fd1b0a" fill-opacity="1" data-original-color="#000000ff" stroke="none" stroke-opacity="1"/></g></svg>