<svg id="Semi_solid" enable-background="new 0 0 64 64" viewBox="0 0 64 64" xmlns="http://www.w3.org/2000/svg" width="300" height="300" version="1.1" xmlns:xlink="http://www.w3.org/1999/xlink" xmlns:svgjs="http://svgjs.dev/svgjs"><g width="100%" height="100%" transform="matrix(1,0,0,1,0,0)"><g><path d="m15 4h-2c0 .802.135 1.587.399 2.334l1.885-.668c-.188-.532-.284-1.093-.284-1.666z" fill="#fd1b0a" fill-opacity="1" data-original-color="#000000ff" stroke="none" stroke-opacity="1"/><path d="m26 11v-2h-6c-1.42 0-2.778-.607-3.727-1.667l-1.49 1.334c1.327 1.482 3.229 2.333 5.217 2.333z" fill="#fd1b0a" fill-opacity="1" data-original-color="#000000ff" stroke="none" stroke-opacity="1"/><path d="m55.187 54.037c5.622-5.923 8.813-13.821 8.813-22.037 0-17.645-14.355-32-32-32h-23c-.553 0-1 .447-1 1 0 10.167 8.034 18.47 18.083 18.954.187 1.16.705 2.208 1.457 3.046h-2.54c-.099 0-.191.034-.284.063-.04.012-.083.006-.122.023l-9 4c-.089.04-.171.092-.244.155l-6.852 5.872-2.814.938c-.34.113-.594.4-.664.752l-1 5c-.075.375.07.759.373.991.177.137.392.206.607.206.152 0 .306-.035.447-.105l6-3c.047-.023.092-.051.134-.081l6.846-4.89 6.95-1.738 2.274 6.064-5.251 1.051c-1.774.354-3.123 1.596-3.701 3.183l-5.342 2.375c-2.033.904-3.233 3.073-2.919 5.276l1.154 8.078-10.665.79c-.523.038-.927.474-.927.997v4c0 .553.447 1 1 1h46c4.963 0 9-4.037 9-9 0-.278-.116-.544-.319-.732-.139-.129-.311-.196-.494-.231zm-45.158-52.037h21.971c16.542 0 30 13.458 30 30 0 8.441-3.584 16.529-9.833 22.207l-2.514.186c4.111-4.857 6.347-10.934 6.347-17.393v-1c0-2.052-.243-4.084-.698-6.065l.599.06c.141.012.282-.002.416-.047l1.164-.388c.336 1.763.519 3.58.519 5.44 0 1.296-.086 2.597-.256 3.867l1.982.266c.182-1.359.274-2.749.274-4.133 0-2.084-.21-4.12-.604-6.09.287-.125.505-.372.578-.68.079-.337-.021-.691-.267-.937l-.945-.945c-3.754-12.895-15.671-22.348-29.762-22.348h-9v2h9c11.753 0 21.889 7.033 26.439 17.107-.232-.114-.501-.141-.755-.056l-1.704.568c-2.376-4.6-5.969-8.398-10.478-11.006l-1.002 1.73c3.951 2.286 7.153 5.552 9.349 9.504l-3.554-.444c-1.905-2.531-4.327-4.692-7.062-6.27l-1 1.732c1.919 1.107 3.668 2.531 5.167 4.176l-.276-.034c-.041-.004-.083-.007-.124-.007h-2.783c-1.057-.931-2.207-1.749-3.43-2.437.134-.499.213-1.021.213-1.563v-4.184c1.161-.414 2-1.514 2-2.816v-2c0-.553-.447-1-1-1h-8c-2.757 0-5 2.243-5 5v3.951c-8.577-.502-15.471-7.373-15.971-15.951zm15.971 54.146v-9.146h7c3.859 0 7-3.141 7-7v-2c0-.058-.023-.108-.033-.163-.006-.037.005-.075-.005-.111l-1.962-6.866v-.058l5.865-1.304c1.397 2.604 2.135 5.52 2.135 8.502 0 9.104-6.801 16.633-15.586 17.819zm10.948-33.758c.336.193.666.398.99.612h-1.478c.174-.194.339-.397.488-.612zm14.928 3.604c.148.019.299.003.44-.044l2.413-.804 2.252 2.251c.019.068.04.135.058.203l-1.153.384-9.786-.977c-.106-.009-.213-.004-.316.019l-7.784 1.729v-3.753h5.937zm-3.876 12.008c0-3.125-.735-6.183-2.121-8.949l.181-.04 2.288.229c1.092 2.616 1.652 5.39 1.652 8.26 0 6.969-3.39 13.505-9.073 17.54l-2.857.212c5.929-3.475 9.93-9.898 9.93-17.252zm4-.5c0-2.776-.482-5.471-1.419-8.037l2.613.261c.527 2.04.806 4.147.806 6.276v1c0 6.669-2.579 12.896-7.266 17.61l-2.323.172c4.796-4.421 7.589-10.672 7.589-17.282zm-23.899-17.631c2.227-.504 3.899-2.492 3.899-4.869h4v4c0 2.206-1.794 4-4 4-1.907 0-3.5-1.343-3.899-3.131zm7.899 5.131v6c0 .093.013.186.038.274l1.636 5.726h-7.98l-2.723-7.26-.79-4.74zm-18.242 6.03c-.122.03-.237.083-.339.156l-6.937 4.954-4.101 2.051.485-2.426 2.449-.817c.122-.04.236-.104.334-.189l6.89-5.904 7.686-3.416.382 2.289.254 1.526zm5.034 9.232 3.208-.642v5.38h-1c-.553 0-1 .447-1 1v10.294l-2.166.16-1.435-12.92c-.023-.209-.022-.414-.003-.616l.01-.005-.007-.015c.126-1.29 1.068-2.371 2.393-2.636zm-2.954 16.34-1.838.136v-7.045l1.028-.385zm-7.42-7.75c-.189-1.321.531-2.623 1.751-3.165l4.247-1.888.384 3.458-2.152.807c-.389.146-.648.519-.648.936v7.886l-2.409.178z" fill="#fd1b0a" fill-opacity="1" data-original-color="#000000ff" stroke="none" stroke-opacity="1"/><circle cx="34" cy="17" r="1" fill="#fd1b0a" fill-opacity="1" data-original-color="#000000ff" stroke="none" stroke-opacity="1"/></g></g></svg>