<svg version="1.1" id="Layer_1" xmlns="http://www.w3.org/2000/svg" xmlns:xlink="http://www.w3.org/1999/xlink" x="0px" y="0px" viewBox="0 0 512 512" style="enable-background:new 0 0 512 512;" xml:space="preserve" width="300" height="300" xmlns:svgjs="http://svgjs.dev/svgjs"><g width="100%" height="100%" transform="matrix(1,0,0,1,0,0)"><g>
	<g>
		<circle cx="254.708" cy="48.032" r="48.032" fill="#fd1b0a" fill-opacity="1" data-original-color="#000000ff" stroke="none" stroke-opacity="1"/>
	</g>
</g><g>
	<g>
		<path d="M494.274,75.992h-5.142V49.713c0-4.25-3.445-7.695-7.695-7.695c-22.859,0-21.548-0.079-22.783,0.211v-7.333&#10;&#9;&#9;&#9;c0-4.25-3.445-7.695-7.695-7.695h-21.021c-4.25,0-7.695,3.445-7.695,7.695v41.095h-26.871c1.109-11.653-7.362-22.056-19.031-23.29&#10;&#9;&#9;&#9;c-11.734-1.237-22.272,7.272-23.515,19.018l-0.452,4.272H315.34c-10.603,22.892-33.782,38.818-60.625,38.818&#10;&#9;&#9;&#9;c-26.842,0-50.021-15.927-60.624-38.818h-36.898l-0.452-4.272c-1.243-11.745-11.772-20.254-23.515-19.018&#10;&#9;&#9;&#9;c-11.669,1.234-20.139,11.637-19.031,23.29H87.256V34.895c0-4.25-3.445-7.695-7.695-7.695H58.539c-4.25,0-7.695,3.445-7.695,7.695&#10;&#9;&#9;&#9;v5.021c-1.236-0.29,0.076-0.211-22.782-0.211c-4.25,0-7.695,3.445-7.695,7.695v28.592h-2.641c-7.842,0-14.59,6.026-14.96,13.859&#10;&#9;&#9;&#9;c-0.395,8.363,6.27,15.27,14.548,15.27h3.054v28.591c0,4.25,3.445,7.695,7.695,7.695c22.841,0,21.538,0.081,22.782-0.211v5.021&#10;&#9;&#9;&#9;c0,4.25,3.445,7.695,7.695,7.695h21.021c4.25,0,7.695-3.445,7.695-7.695v-41.097h30.007l8.475,80.192&#10;&#9;&#9;&#9;c1.925,18.209,24.602,25.409,36.678,11.646l30.675-34.961v111.599l-59.479,202.76c-4.323,14.736,4.119,30.187,18.856,34.51&#10;&#9;&#9;&#9;c14.732,4.323,30.186-4.116,34.51-18.855l58.742-200.246h18.101l58.742,200.246c4.323,14.737,19.773,23.179,34.51,18.855&#10;&#9;&#9;&#9;c14.737-4.323,23.179-19.773,18.856-34.51l-60.096-204.864V161.264l27.699,34.924c12.668,15.972,38.331,8.507,40.456-11.766&#10;&#9;&#9;&#9;l8.312-79.301h29.94v41.097c0,4.25,3.445,7.695,7.695,7.695h21.021c4.25,0,7.695-3.445,7.695-7.695v-2.709&#10;&#9;&#9;&#9;c1.237,0.29-0.076,0.211,22.783,0.211c4.25,0,7.695-3.445,7.695-7.695v-30.903h5.554c8.278,0,14.942-6.905,14.548-15.27&#10;&#9;&#9;&#9;C508.864,82.018,502.115,75.992,494.274,75.992z M161.553,135.178l-3.719-30.496h27.893L161.553,135.178z M347.136,135.178&#10;&#9;&#9;&#9;l-24.174-30.496h27.893L347.136,135.178z" fill="#fd1b0a" fill-opacity="1" data-original-color="#000000ff" stroke="none" stroke-opacity="1"/>
	</g>
</g><g>
</g><g>
</g><g>
</g><g>
</g><g>
</g><g>
</g><g>
</g><g>
</g><g>
</g><g>
</g><g>
</g><g>
</g><g>
</g><g>
</g><g>
</g></g></svg>